<?xml version="1.0" encoding="utf-8"?>
<!-- Generator: Adobe Illustrator 26.0.1, SVG Export Plug-In . SVG Version: 6.00 Build 0)  -->
<svg version="1.1" id="圖層_1" xmlns="http://www.w3.org/2000/svg" xmlns:xlink="http://www.w3.org/1999/xlink" x="0px" y="0px"
	 viewBox="0 0 600 600" style="enable-background:new 0 0 600 600;" xml:space="preserve">
<style type="text/css">
	.st0{fill:none;}
</style>
<g>
	<path d="M97.56,499.48h1.27l10.72,29.97h-1.54l-6.27-17.98c-1.27-3.63-2.36-6.72-3.45-10.44h-0.18c-1.09,3.72-2.18,6.81-3.45,10.44
		l-6.36,17.98h-1.45L97.56,499.48z M91.48,517.46h13.31v1.27H91.48V517.46z"/>
	<path d="M144.07,499.48h1.45v29.97h-1.45V499.48z"/>
	<path d="M184.12,499.48h1.45v17.26h0.09l15.26-17.26h1.82l-9.63,10.99l10.9,18.98h-1.73l-10.26-17.89l-6.45,7.27v10.63h-1.45
		V499.48z"/>
	<path d="M244.8,499.48h1.27l10.72,29.97h-1.54l-6.27-17.98c-1.27-3.63-2.36-6.72-3.45-10.44h-0.18c-1.09,3.72-2.18,6.81-3.45,10.44
		l-6.36,17.98h-1.45L244.8,499.48z M238.71,517.46h13.31v1.27h-13.31V517.46z"/>
	<path d="M329.91,499.48h2.36l6.45,18.16c0.82,2.27,1.63,4.54,2.45,6.81h0.18c0.82-2.27,1.54-4.54,2.36-6.81l6.45-18.16h2.36v29.97
		h-1.45v-20.89c0-2.36,0.09-5.36,0.18-7.81h-0.18l-2.32,6.63l-6.77,18.71h-1.54l-6.81-18.71l-2.36-6.63h-0.18
		c0.09,2.45,0.18,5.45,0.18,7.81v20.89h-1.36V499.48z"/>
	<path d="M391.12,499.48h1.45v29.97h-1.45V499.48z"/>
	<path d="M431.18,499.48h2.36l6.45,18.16c0.82,2.27,1.63,4.54,2.45,6.81h0.18c0.82-2.27,1.54-4.54,2.36-6.81l6.45-18.16h2.36v29.97
		h-1.45v-20.89c0-2.36,0.09-5.36,0.18-7.81h-0.18l-2.32,6.63l-6.77,18.71h-1.54l-6.81-18.71l-2.36-6.63h-0.18
		c0.09,2.45,0.18,5.45,0.18,7.81v20.89h-1.36V499.48z"/>
	<path d="M492.4,499.48h1.45v29.97h-1.45V499.48z"/>
</g>
<g>
	<polygon class="st0" points="119.94,354.74 119.97,354.74 120.53,352.96 	"/>
	<polygon class="st0" points="302.47,346.48 302.52,346.48 211.08,73.43 120.54,344.69 301.65,343.89 	"/>
	<polygon points="120.54,352.95 120.53,352.96 120.54,352.95 	"/>
	<polygon points="215.95,59.44 206.5,59.44 72.09,461.72 80.62,463.85 116.69,356.8 119.97,346.48 119.94,346.48 120.53,344.7 
		120.54,344.69 211.08,73.43 277.78,272.61 277.78,244.48 	"/>
	<polygon points="298.15,305.43 286.61,270.91 286.61,298.99 295.26,324.83 295.26,305.43 	"/>
	<polygon points="304.1,331.5 304.1,359.9 305.25,363.55 305.26,363.55 341.83,472.1 350.37,469.98 	"/>
	<polygon points="519.18,63.25 512.78,57.47 295.76,295.55 295.76,60.51 286.61,60.51 286.61,464 295.76,464 295.76,308.93 	"/>
	<polygon points="389.76,221.71 383.11,228.8 518.09,475.29 525.71,471.34 	"/>
</g>
</svg>
